Coordinates
version=1
nRows=8
nColumns=36
inDegrees=yes

Units are S.I. units (second, meters, Newtons, ...)
If the header above contains a line with 'inDegrees', this indicates whether rotational values are in degrees (yes) or radians (no).

endheader
time	pelvis_tilt	pelvis_list	pelvis_rotation	pelvis_tx	pelvis_ty	pelvis_tz	hip_flexion_r	hip_adduction_r	hip_rotation_r	knee_angle_r	knee_angle_r_beta	ankle_angle_r	subtalar_angle_r	mtp_angle_r	hip_flexion_l	hip_adduction_l	hip_rotation_l	knee_angle_l	knee_angle_l_beta	ankle_angle_l	subtalar_angle_l	mtp_angle_l	lumbar_extension	lumbar_bending	lumbar_rotation	arm_flex_r	arm_add_r	arm_rot_r	elbow_flex_r	pro_sup_r	arm_flex_l	arm_add_l	arm_rot_l	elbow_flex_l	pro_sup_l
      0.00000000	      9.47588126	     -2.66018951	     -5.03553112	      0.46208462	      1.03792870	      0.72163158	      9.85167302	      0.78879177	      2.33295270	     10.70409818	      0.18682176	      0.56498718	     -6.99723105	     -6.52849406	    -14.56454219	      0.63101500	      4.49402987	      4.93637381	      0.08615598	     13.68021440	     -5.78968507	     -6.52849406	    -23.25073764	      1.47041842	      1.20925916	      0.10094782	    -15.39670592	     -0.80165634	     33.77766364	     93.86983878	     14.46095941	    -15.19945752	      8.92117892	     32.26321844	     90.88913953
      0.01666670	     10.09163432	     -2.34931433	     -4.21810664	      0.46105041	      1.03614661	      0.72165943	     10.61810693	      0.60259180	      1.62295000	      9.97758826	      0.17414177	      1.53343942	     -3.73840691	     -6.73548613	    -14.54823764	      1.03756646	      5.51265391	      7.83991154	      0.13683227	     15.50651734	     -7.22305167	     -6.73548613	    -23.75045597	      0.94710479	      1.86512369	     -0.76268451	    -15.10609343	     -2.32185147	     33.92771361	    101.56626217	     16.08809966	    -15.49056317	     11.82327776	     32.91714198	     96.52968507
      0.03333330	      9.68962563	     -1.76871798	     -3.99524583	      0.45906776	      1.03589541	      0.72348590	     11.02829046	      0.10281236	      1.67054883	      6.73097975	      0.11747776	      0.19871531	     -3.49096033	     -6.72236540	    -14.32020009	      1.45284579	      5.00020219	      8.95314216	      0.15626181	     15.76081052	     -8.16758657	     -6.72236540	    -23.34799314	      0.37675900	      1.24041112	     -0.69862054	    -15.10516276	     -0.80277443	     33.63526903	    102.19601064	     16.52767602	    -16.16325391	     13.42479043	     33.21199669	     96.54454173
      0.05000000	      9.88966423	     -1.35076362	     -3.29534216	      0.45604001	      1.03566857	      0.72526279	     11.14004914	     -0.33897484	      1.09445432	      5.17582417	      0.09033517	      0.73135678	     -2.72675178	     -6.82035911	    -14.55770594	      1.53764674	      3.98016136	     10.33476320	      0.18037565	     16.03884710	     -8.63388046	     -6.82035911	    -23.51416763	     -0.03979111	      0.84009403	     -0.88790412	    -15.11450031	      0.07367215	     33.58486861	    101.40754773	     17.52239165	    -16.57035729	     15.41523268	     33.07727929	     96.10641224
      0.06666670	      9.97445453	     -1.11972420	     -3.06394393	      0.45419073	      1.03467890	      0.72712849	     11.43167573	     -0.37679435	      0.85715192	      4.57108861	      0.07978055	      0.79573461	     -2.61891226	     -6.82642186	    -14.60652007	      1.44662116	      2.18094162	     12.20920825	      0.21309088	     16.15033821	     -9.67433665	     -6.82642186	    -23.65024471	     -0.37155473	      0.76025506	     -0.89159723	    -15.00354898	      0.04843436	     33.59307003	    101.32566368	     18.00037479	    -16.58271262	     15.45244819	     33.14237044	     96.02901407
      0.08333330	      9.83644546	     -1.17366889	     -2.86199019	      0.45523653	      1.03206351	      0.72840936	     11.86924805	     -0.10834237	      0.25003640	      4.67847031	      0.08165471	      0.52089352	     -2.75244846	     -6.83687065	    -14.41930174	      0.97781308	      0.60888591	     14.31471444	      0.24983890	     16.24969370	    -10.64214483	     -6.83687065	    -23.53979077	     -0.26650927	      0.87524592	     -0.86527229	    -15.05838672	     -0.00297950	     33.51504795	    101.05144116	     18.24046475	    -16.40257209	     15.51669714	     33.10862834	     95.80346117
      0.10000000	      9.52206481	     -1.48913312	     -2.67514460	      0.45863449	      1.02980922	      0.72960316	     12.19432586	      0.46278787	     -0.43980036	      5.07880357	      0.08864184	     -0.31602117	     -3.14815471	     -6.84436965	    -14.21736030	      0.22469303	     -0.48771331	     16.24369786	      0.28350601	     16.17846226	    -11.62616506	     -6.84436965	    -22.98032051	      0.21629798	      1.07536709	     -0.85258049	    -15.18992614	     -0.06287699	     33.08266214	    100.96819911	     18.24168091	    -15.95199917	     15.47977613	     32.62460087	     95.65953681
      0.11666670	      9.46616805	     -1.80268427	     -2.61709423	      0.46240419	      1.02994272	      0.73109361	     12.08883764	      1.04153808	     -1.00789960	      5.92597874	      0.10342784	     -1.34515782	     -3.32101499	     -6.84673233	    -14.64143935	     -0.46876204	     -1.48715125	     17.38497568	      0.30342507	     15.64458208	    -12.09088231	     -6.84673233	    -22.59148872	      0.69056614	      1.24981976	     -0.87957156	    -15.23221466	     -0.07806711	     32.88808266	    100.91737129	     17.82985794	    -15.66864563	     15.44721558	     32.33766668	     95.58654539
